<?xml version="1.0" encoding="utf-8"?>
<!-- Generator: Adobe Illustrator 16.0.0, SVG Export Plug-In . SVG Version: 6.00 Build 0)  -->
<!DOCTYPE svg PUBLIC "-//W3C//DTD SVG 1.1//EN" "http://www.w3.org/Graphics/SVG/1.1/DTD/svg11.dtd">
<svg version="1.1" id="Layer_1" xmlns="http://www.w3.org/2000/svg" xmlns:xlink="http://www.w3.org/1999/xlink" x="0px" y="0px"
	 width="150px" height="58.875px" viewBox="0 0 150 58.875" enable-background="new 0 0 150 58.875" xml:space="preserve">
<g>
	<path fill="#FFFFFF" d="M4.969,36.523c-1.796,0-3.03-0.353-3.702-1.055c-0.671-0.705-1.007-1.784-1.007-3.242v-3.712
		c0-1.44,0.344-2.516,1.032-3.229c0.688-0.711,1.914-1.068,3.678-1.068c1.117,0,2.055,0.122,2.816,0.365l-0.17,1.698
		c-0.841-0.178-1.707-0.267-2.597-0.267c-1.019,0-1.728,0.175-2.124,0.521c-0.397,0.35-0.596,0.984-0.596,1.906V32.3
		c0,0.922,0.198,1.556,0.596,1.906c0.396,0.347,1.104,0.521,2.124,0.521c0.89,0,1.756-0.089,2.597-0.267l0.194,1.698
		C7.048,36.401,6.102,36.523,4.969,36.523z"/>
	<path fill="#FFFFFF" d="M12.956,36.28h-2.04V19.628l2.04-0.292V36.28z"/>
	<path fill="#FFFFFF" d="M18.272,32.155c0,0.969,0.189,1.65,0.57,2.039c0.38,0.388,1.129,0.581,2.246,0.581
		c1.084,0,2.331-0.184,3.738-0.557l0.267,1.627c-1.23,0.453-2.621,0.679-4.175,0.679c-1.667,0-2.864-0.371-3.592-1.118
		c-0.728-0.744-1.093-1.819-1.093-3.227v-3.544c0-2.946,1.546-4.419,4.637-4.419c2.961,0,4.442,1.489,4.442,4.466v2.477h-7.04
		V32.155z M18.272,28.489v0.969h5.073v-0.969c0-0.875-0.182-1.523-0.546-1.944c-0.365-0.42-1.007-0.63-1.93-0.63
		s-1.586,0.215-1.991,0.642C18.474,26.987,18.272,27.63,18.272,28.489z"/>
	<path fill="#FFFFFF" d="M44.829,36.28h-2.039V27.25c0-0.729-0.381-1.093-1.143-1.093c-0.484,0-1.104,0.112-1.856,0.341
		c-0.752,0.225-1.452,0.51-2.099,0.85v8.932h-2.039V27.25c0-0.729-0.381-1.093-1.141-1.093c-0.437,0-1.049,0.118-1.833,0.353
		c-0.785,0.234-1.493,0.513-2.124,0.838v8.932h-2.039V24.458h1.65l0.194,1.02c1.749-0.842,3.334-1.262,4.758-1.262
		c1.15,0,1.901,0.42,2.258,1.262c1.749-0.842,3.374-1.262,4.879-1.262c1.716,0,2.573,1.004,2.573,3.011V36.28z"/>
	<path fill="#FFFFFF" d="M50.023,32.155c0,0.969,0.191,1.65,0.57,2.039c0.381,0.388,1.129,0.581,2.247,0.581
		c1.084,0,2.33-0.184,3.737-0.557l0.268,1.627c-1.23,0.453-2.622,0.679-4.176,0.679c-1.667,0-2.864-0.371-3.593-1.118
		c-0.727-0.744-1.092-1.819-1.092-3.227v-3.544c0-2.946,1.545-4.419,4.635-4.419c2.963,0,4.444,1.489,4.444,4.466v2.477h-7.041
		V32.155z M50.023,28.489v0.969h5.074v-0.969c0-0.875-0.182-1.523-0.546-1.944c-0.364-0.42-1.008-0.63-1.932-0.63
		c-0.921,0-1.585,0.215-1.989,0.642C50.226,26.987,50.023,27.63,50.023,28.489z"/>
	<path fill="#FFFFFF" d="M69.444,36.28h-2.039V27.25c0-0.729-0.38-1.093-1.141-1.093c-0.438,0-1.049,0.118-1.833,0.353
		c-0.786,0.234-1.493,0.513-2.125,0.838v8.932h-2.039V24.458h1.651l0.193,1.02c1.749-0.842,3.334-1.262,4.759-1.262
		c1.715,0,2.573,1.004,2.573,3.011V36.28z"/>
	<path fill="#FFFFFF" d="M77.187,36.523c-1.796,0-3.031-0.353-3.702-1.055c-0.671-0.705-1.008-1.784-1.008-3.242v-3.712
		c0-1.44,0.344-2.516,1.033-3.229c0.687-0.711,1.913-1.068,3.677-1.068c1.116,0,2.056,0.122,2.815,0.365l-0.169,1.698
		c-0.843-0.178-1.708-0.267-2.599-0.267c-1.019,0-1.728,0.175-2.123,0.521c-0.396,0.35-0.596,0.984-0.596,1.906V32.3
		c0,0.922,0.199,1.556,0.596,1.906c0.396,0.347,1.104,0.521,2.123,0.521c0.891,0,1.756-0.089,2.599-0.267l0.194,1.698
		C79.266,36.401,78.319,36.523,77.187,36.523z"/>
	<path fill="#FFFFFF" d="M84.493,32.155c0,0.969,0.19,1.65,0.57,2.039c0.381,0.388,1.129,0.581,2.246,0.581
		c1.084,0,2.331-0.184,3.738-0.557l0.267,1.627c-1.229,0.453-2.621,0.679-4.175,0.679c-1.667,0-2.864-0.371-3.594-1.118
		c-0.728-0.744-1.092-1.819-1.092-3.227v-3.544c0-2.946,1.546-4.419,4.637-4.419c2.961,0,4.442,1.489,4.442,4.466v2.477h-7.04
		V32.155z M84.493,28.489v0.969h5.074v-0.969c0-0.875-0.183-1.523-0.547-1.944c-0.364-0.42-1.007-0.63-1.93-0.63
		c-0.922,0-1.586,0.215-1.99,0.642C84.695,26.987,84.493,27.63,84.493,28.489z"/>
	<path fill="#FFFFFF" d="M100.636,34.508l0.267,1.579c-0.792,0.291-1.617,0.436-2.477,0.436c-1.019,0-1.764-0.205-2.232-0.62
		c-0.47-0.412-0.703-1.103-0.703-2.075v-7.671h-2.089v-1.699h2.089v-2.913l2.038-0.292v3.205h3.351l-0.171,1.699h-3.18v7.331
		c0,0.486,0.073,0.827,0.218,1.02c0.146,0.195,0.478,0.293,0.996,0.293C99.244,34.801,99.874,34.703,100.636,34.508z"/>
	<path fill="#FFFFFF" d="M112.676,32.081c0,1.327-0.394,2.4-1.177,3.215c-0.785,0.818-1.995,1.227-3.63,1.227
		s-2.845-0.409-3.629-1.227c-0.784-0.815-1.178-1.888-1.178-3.215v-3.423c0-1.328,0.394-2.4,1.178-3.216
		c0.784-0.818,1.994-1.227,3.629-1.227s2.845,0.409,3.63,1.227c0.783,0.815,1.177,1.888,1.177,3.216V32.081z M110.637,28.584
		c0-1.73-0.923-2.596-2.768-2.596s-2.769,0.865-2.769,2.596v3.571c0,1.73,0.924,2.596,2.769,2.596s2.768-0.865,2.768-2.596V28.584z"
		/>
	<path fill="#FFFFFF" d="M121.1,24.215l0.268,1.871c-0.971,0.468-2.096,1.146-3.374,2.039v8.155h-2.039V24.458h1.772l0.122,1.652
		C118.835,25.333,119.919,24.701,121.1,24.215z"/>
	<path fill="#FFFFFF" d="M128.576,24.215l0.267,1.871c-0.97,0.468-2.095,1.146-3.374,2.039v8.155h-2.038V24.458h1.772l0.121,1.652
		C126.311,25.333,127.396,24.701,128.576,24.215z"/>
	<path fill="#FFFFFF" d="M132.388,32.155c0,0.969,0.19,1.65,0.57,2.039c0.38,0.388,1.129,0.581,2.246,0.581
		c1.084,0,2.33-0.184,3.738-0.557l0.267,1.627c-1.23,0.453-2.621,0.679-4.175,0.679c-1.667,0-2.865-0.371-3.594-1.118
		c-0.728-0.744-1.093-1.819-1.093-3.227v-3.544c0-2.946,1.547-4.419,4.637-4.419c2.962,0,4.443,1.489,4.443,4.466v2.477h-7.04
		V32.155z M132.388,28.489v0.969h5.074v-0.969c0-0.875-0.183-1.523-0.547-1.944c-0.364-0.42-1.007-0.63-1.931-0.63
		c-0.921,0-1.585,0.215-1.99,0.642C132.591,26.987,132.388,27.63,132.388,28.489z"/>
	<path fill="#FFFFFF" d="M149.986,33.1c0,1.229-0.279,2.11-0.837,2.634c-0.559,0.525-1.64,0.789-3.24,0.789
		c-1.409,0-2.663-0.211-3.764-0.631l0.267-1.6c1.133,0.323,2.258,0.483,3.375,0.483c0.905,0,1.497-0.104,1.771-0.314
		c0.274-0.211,0.413-0.641,0.413-1.286c0-0.649-0.122-1.07-0.364-1.263c-0.242-0.195-0.947-0.438-2.112-0.729
		c-1.423-0.355-2.314-0.756-2.67-1.204c-0.356-0.444-0.534-1.307-0.534-2.584c0-1.117,0.299-1.925,0.898-2.428
		c0.6-0.5,1.658-0.752,3.18-0.752c1.23,0,2.346,0.138,3.35,0.413l-0.144,1.674c-1.166-0.225-2.259-0.338-3.278-0.338
		c-0.825,0-1.364,0.104-1.615,0.314c-0.25,0.211-0.376,0.599-0.376,1.165c0,0.696,0.098,1.153,0.292,1.372
		c0.194,0.219,0.767,0.442,1.723,0.667c0.891,0.229,1.562,0.424,2.016,0.584c0.453,0.163,0.813,0.388,1.08,0.679
		c0.267,0.293,0.428,0.595,0.485,0.912C149.958,31.971,149.986,32.454,149.986,33.1z"/>
</g>
<line fill="none" stroke="#FFFFFF" stroke-width="0.75" x1="2.633" y1="57.689" x2="35.787" y2="0.608"/>
</svg>
